<svg width="58" height="58" viewBox="0 0 58 58" fill="none" xmlns="http://www.w3.org/2000/svg">
<circle cx="29" cy="29" r="29" fill="#1877F2"/>
<g clip-path="url(#clip0_4677_76987)">
<rect width="26" height="26" transform="translate(16 16)" fill="#1877F2"/>
<path d="M41.4584 29.0752C41.4584 22.1947 35.8806 16.6169 29.0001 16.6169C22.1195 16.6169 16.5417 22.1947 16.5417 29.0752C16.5417 35.2935 21.0976 40.4476 27.0535 41.3822V32.6765H23.8902V29.0752H27.0535V26.3305C27.0535 23.2081 28.9134 21.4834 31.7592 21.4834C33.1222 21.4834 34.5479 21.7267 34.5479 21.7267V24.7927H32.977C31.4293 24.7927 30.9467 25.753 30.9467 26.7382V29.0752H34.4019L33.8496 32.6765H30.9467V41.3822C36.9026 40.4476 41.4584 35.2935 41.4584 29.0752Z" fill="white"/>
</g>
<defs>
<clipPath id="clip0_4677_76987">
<rect width="26" height="26" fill="white" transform="translate(16 16)"/>
</clipPath>
</defs>
</svg>
